<?xml version="1.0" standalone="no"?><!DOCTYPE svg PUBLIC "-//W3C//DTD SVG 1.1//EN" "http://www.w3.org/Graphics/SVG/1.1/DTD/svg11.dtd"><svg t="1736543684181" class="icon" viewBox="0 0 1024 1024" version="1.1" xmlns="http://www.w3.org/2000/svg" p-id="1971" xmlns:xlink="http://www.w3.org/1999/xlink" width="200" height="200"><path d="M157.61 783.379l24.829-166.353 430.59-488.01 7.444-2.897c22.047-8.571 41.063-12.741 58.149-12.741 32.112 0 50.36 14.884 60.012 27.373 12.631 16.34 18.43 38.373 17.24 65.506-0.77 17.397-4.242 31.16-4.634 32.68l-1.915 7.354-432.75 503.754-158.965 33.334z m86.951-137.447l-8.023 53.752 44.726-9.365L689 215.685c2.142-13.375 1.764-29.462-2.363-34.77-1.289-1.654-6.033-1.824-8.014-1.824-5.1 0-13.721 1.047-27.107 5.625L244.561 645.932z" p-id="1972"></path><path d="M835 597c0 22.092-17.908 40-40 40H572c-22.092 0-40-17.908-40-40s17.908-40 40-40h223c22.092 0 40 17.908 40 40z" fill="#FFCA4E" p-id="1973"></path><path d="M871 725c0 22.644-18.356 41-41 41H472c-22.644 0-41-18.356-41-41s18.356-41 41-41h358c22.644 0 41 18.356 41 41z" p-id="1974"></path></svg>