<svg t="1737226932057" class="icon" viewBox="0 0 1024 1024" version="1.1" xmlns="http://www.w3.org/2000/svg" p-id="7146" width="2048" height="2048"><path d="M848.033146 0.029013a21.332729 21.332729 0 0 0-13.482285 3.925222c-1.365295 0.853309-131.580272 88.829483-486.983535 88.829483a21.759383 21.759383 0 0 0-19.455449 12.372983L4.11039 766.983282a22.527362 22.527362 0 0 0 2.389266 28.756519l1.194633 1.109302a10.23971 10.23971 0 0 0 1.109302 0.93864C14.862086 803.078259 271.110825 1024 694.864152 1024a21.674053 21.674053 0 0 0 19.54078-12.458314l282.530661-589.636627a22.612693 22.612693 0 0 0-0.682647-21.332729 21.674053 21.674053 0 0 0-17.74883-10.922357 21.674053 21.674053 0 0 0-20.564751 12.628976L681.723191 978.774615a1133.194559 1133.194559 0 0 1-350.710063-59.390318c77.053817 11.093019 165.371314 12.799637 263.160544-4.607869a21.930045 21.930045 0 0 0 15.786219-12.11699l347.723481-725.739437a22.698024 22.698024 0 0 0-1.194633-22.186038 21.588722 21.588722 0 0 0-37.716264 2.559927l-342.603626 714.902411a776.852656 776.852656 0 0 1-397.812729-36.436301c32.255086 4.010553 67.0701 6.826473 103.165077 6.826473 71.251315 0 146.598513-10.581034 211.53534-42.580127a22.3567 22.3567 0 0 0 10.23971-10.239709L866.293962 31.857444a22.3567 22.3567 0 0 0-5.375848-26.452584A21.332729 21.332729 0 0 0 848.033146 0.029013z" fill-opacity=".65" p-id="7147" fill="#2c2c2c"></path></svg>